<svg xmlns="http://www.w3.org/2000/svg" xmlns:xlink="http://www.w3.org/1999/xlink" width="500" zoomAndPan="magnify" viewBox="0 0 375 374.999991" height="500" preserveAspectRatio="xMidYMid meet" version="1.2"><defs><clipPath id="81f250acdf"><path d="M 80.3125 133 L 294.8125 133 L 294.8125 257.636719 L 80.3125 257.636719 Z M 80.3125 133 "/></clipPath><clipPath id="86ef905750"><path d="M 175 75.386719 L 200 75.386719 L 200 99 L 175 99 Z M 175 75.386719 "/></clipPath><clipPath id="db901a37de"><path d="M 80.3125 133 L 294.8125 133 L 294.8125 257.636719 L 80.3125 257.636719 Z M 80.3125 133 "/></clipPath><clipPath id="3ef4191452"><path d="M 175 75.386719 L 200 75.386719 L 200 99 L 175 99 Z M 175 75.386719 "/></clipPath></defs><g id="7a4961d5e4"><g clip-rule="nonzero" clip-path="url(#81f250acdf)"><path style=" stroke:none;fill-rule:nonzero;fill:#1e1e1e;fill-opacity:1;" d="M 289.636719 240 C 289.636719 246.820312 284.054688 252.40625 277.230469 252.40625 L 97.765625 252.40625 C 90.941406 252.40625 85.359375 246.820312 85.359375 240 L 85.359375 150.679688 C 85.359375 143.855469 90.941406 138.273438 97.765625 138.273438 L 277.230469 138.273438 C 284.054688 138.273438 289.636719 143.855469 289.636719 150.679688 Z M 277.230469 133.3125 L 97.765625 133.3125 C 88.191406 133.3125 80.398438 141.105469 80.398438 150.679688 L 80.398438 240 C 80.398438 249.574219 88.191406 257.367188 97.765625 257.367188 L 277.230469 257.367188 C 286.804688 257.367188 294.597656 249.574219 294.597656 240 L 294.597656 150.679688 C 294.597656 141.105469 286.804688 133.3125 277.230469 133.3125 "/></g><path style=" stroke:none;fill-rule:nonzero;fill:#fcf4d4;fill-opacity:1;" d="M 250.960938 156.140625 C 249.898438 159.214844 246.535156 160.851562 243.460938 159.789062 C 240.390625 158.722656 238.753906 155.359375 239.816406 152.285156 C 240.878906 149.214844 244.242188 147.578125 247.320312 148.640625 C 250.390625 149.703125 252.027344 153.066406 250.960938 156.140625 Z M 131.535156 159.789062 C 128.464844 160.851562 125.097656 159.214844 124.035156 156.140625 C 122.972656 153.066406 124.605469 149.703125 127.679688 148.640625 C 130.75 147.578125 134.117188 149.214844 135.179688 152.285156 C 136.242188 155.359375 134.609375 158.722656 131.535156 159.789062 Z M 277.230469 138.273438 L 97.765625 138.273438 C 90.941406 138.273438 85.359375 143.855469 85.359375 150.679688 L 85.359375 240 C 85.359375 246.820312 90.941406 252.40625 97.765625 252.40625 L 277.230469 252.40625 C 284.054688 252.40625 289.636719 246.820312 289.636719 240 L 289.636719 150.679688 C 289.636719 143.855469 284.054688 138.273438 277.230469 138.273438 "/><path style=" stroke:none;fill-rule:nonzero;fill:#ffffff;fill-opacity:1;" d="M 89.496094 243.308594 L 89.496094 153.988281 C 89.496094 147.164062 95.078125 141.582031 101.902344 141.582031 L 281.367188 141.582031 C 283.339844 141.582031 285.199219 142.0625 286.859375 142.890625 C 284.578125 140.082031 281.105469 138.273438 277.230469 138.273438 L 97.765625 138.273438 C 90.941406 138.273438 85.359375 143.855469 85.359375 150.679688 L 85.359375 240 C 85.359375 244.847656 88.1875 249.0625 92.269531 251.097656 C 90.539062 248.964844 89.496094 246.253906 89.496094 243.308594 "/><path style=" stroke:none;fill-rule:nonzero;fill:#1e1e1e;fill-opacity:1;" d="M 249.644531 154.796875 C 248.734375 157.433594 245.855469 158.832031 243.214844 157.921875 C 242.101562 157.53125 241.210938 156.792969 240.617188 155.867188 C 240.261719 154.835938 240.226562 153.679688 240.617188 152.558594 C 241.527344 149.925781 244.40625 148.527344 247.039062 149.4375 C 248.160156 149.824219 249.050781 150.5625 249.640625 151.488281 C 250 152.523438 250.03125 153.679688 249.644531 154.796875 Z M 247.320312 148.640625 C 244.242188 147.578125 240.878906 149.214844 239.816406 152.285156 C 238.753906 155.359375 240.390625 158.722656 243.460938 159.789062 C 246.535156 160.851562 249.898438 159.214844 250.960938 156.140625 C 252.027344 153.066406 250.390625 149.703125 247.320312 148.640625 "/><path style=" stroke:none;fill-rule:nonzero;fill:#1e1e1e;fill-opacity:1;" d="M 125.355469 151.488281 C 125.945312 150.5625 126.839844 149.824219 127.957031 149.4375 C 130.59375 148.527344 133.46875 149.925781 134.382812 152.558594 C 134.769531 153.679688 134.738281 154.835938 134.378906 155.867188 C 133.785156 156.792969 132.894531 157.53125 131.78125 157.921875 C 129.140625 158.832031 126.261719 157.433594 125.351562 154.796875 C 124.964844 153.679688 124.996094 152.523438 125.355469 151.488281 Z M 124.035156 156.140625 C 125.097656 159.214844 128.464844 160.851562 131.535156 159.789062 C 134.609375 158.722656 136.242188 155.359375 135.179688 152.285156 C 134.117188 149.214844 130.75 147.578125 127.679688 148.640625 C 124.605469 149.703125 122.972656 153.066406 124.035156 156.140625 "/><path style=" stroke:none;fill-rule:nonzero;fill:#1e1e1e;fill-opacity:1;" d="M 133.820312 153.847656 C 147.457031 135.460938 161.089844 117.070312 174.726562 98.679688 C 176.675781 96.050781 178.625 93.425781 180.570312 90.800781 C 183.039062 87.472656 177.457031 84.261719 175.015625 87.550781 C 161.378906 105.945312 147.742188 124.335938 134.105469 142.722656 C 132.160156 145.351562 130.210938 147.976562 128.261719 150.601562 C 125.792969 153.929688 131.378906 157.144531 133.820312 153.847656 "/><path style=" stroke:none;fill-rule:nonzero;fill:#ffffff;fill-opacity:1;" d="M 134.355469 154.164062 C 143.445312 141.902344 152.539062 129.644531 161.628906 117.382812 C 166.171875 111.25 170.71875 105.121094 175.265625 98.996094 C 177.164062 96.429688 180.074219 93.605469 181.335938 90.703125 C 181.769531 89.695312 181.941406 88.800781 181.464844 87.773438 C 180.402344 85.492188 177.253906 84.957031 175.308594 86.371094 C 173.203125 87.910156 171.617188 91.101562 170.097656 93.152344 C 167.824219 96.214844 165.554688 99.28125 163.277344 102.347656 C 154.1875 114.609375 145.097656 126.867188 136.007812 139.128906 C 133.574219 142.40625 131.058594 145.640625 128.703125 148.976562 C 127.734375 150.347656 126.644531 151.550781 127.210938 153.289062 C 128.257812 156.5 132.304688 156.308594 134.257812 154.289062 C 134.8125 153.71875 133.9375 152.839844 133.378906 153.414062 C 129.996094 155.417969 128.464844 154.585938 128.800781 150.917969 C 129.125 150.480469 129.449219 150.039062 129.769531 149.605469 C 130.535156 147.992188 132.117188 146.445312 133.179688 145.007812 C 135.132812 142.382812 137.074219 139.75 139.027344 137.125 C 143.085938 131.652344 147.140625 126.179688 151.199219 120.707031 C 155.097656 115.449219 158.992188 110.199219 162.886719 104.941406 C 164.835938 102.316406 166.785156 99.6875 168.730469 97.0625 C 171.132812 93.828125 173.199219 89.746094 176.949219 88.203125 C 179.375 86.296875 180.402344 87.058594 180.035156 90.488281 C 179.546875 91.144531 179.0625 91.800781 178.574219 92.457031 C 177.601562 93.769531 176.628906 95.082031 175.65625 96.398438 C 173.542969 99.242188 171.433594 102.089844 169.324219 104.9375 C 165.425781 110.1875 161.53125 115.445312 157.636719 120.699219 C 149.515625 131.644531 141.402344 142.589844 133.28125 153.535156 C 132.808594 154.179688 133.882812 154.800781 134.355469 154.164062 "/><path style=" stroke:none;fill-rule:nonzero;fill:#1e1e1e;fill-opacity:1;" d="M 241.175781 153.847656 C 227.542969 135.460938 213.90625 117.070312 200.269531 98.679688 C 198.320312 96.050781 196.371094 93.425781 194.425781 90.800781 C 191.960938 87.472656 197.539062 84.261719 199.980469 87.550781 C 213.617188 105.945312 227.253906 124.335938 240.890625 142.722656 C 242.835938 145.351562 244.785156 147.976562 246.734375 150.601562 C 249.199219 153.929688 243.621094 157.144531 241.175781 153.847656 "/><path style=" stroke:none;fill-rule:nonzero;fill:#ffffff;fill-opacity:1;" d="M 241.714844 153.535156 C 233.59375 142.589844 225.480469 131.644531 217.363281 120.699219 C 213.464844 115.445312 209.570312 110.1875 205.671875 104.9375 C 203.726562 102.308594 201.777344 99.679688 199.828125 97.054688 C 198.855469 95.742188 197.882812 94.425781 196.910156 93.113281 C 196.257812 92.238281 195.609375 91.359375 194.960938 90.488281 C 194.59375 87.058594 195.621094 86.296875 198.050781 88.203125 C 201.617188 89.671875 203.5 93.332031 205.777344 96.402344 C 207.886719 99.25 209.996094 102.097656 212.109375 104.941406 C 216.003906 110.199219 219.902344 115.449219 223.796875 120.707031 C 227.691406 125.960938 231.589844 131.214844 235.484375 136.46875 C 237.433594 139.09375 239.382812 141.722656 241.328125 144.351562 C 242.464844 145.882812 243.601562 147.414062 244.738281 148.945312 C 245.226562 149.605469 245.710938 150.261719 246.199219 150.917969 C 246.53125 154.585938 245.003906 155.417969 241.617188 153.414062 C 241.0625 152.839844 240.183594 153.714844 240.738281 154.289062 C 242.542969 156.152344 245.734375 156.535156 247.371094 154.09375 C 249.621094 150.742188 244.128906 146.054688 242.398438 143.726562 C 233.472656 131.679688 224.542969 119.640625 215.613281 107.601562 C 211.070312 101.46875 206.523438 95.339844 201.976562 89.210938 C 200.21875 86.839844 197.851562 84.074219 194.726562 86.390625 C 191.40625 88.855469 194.558594 92.019531 196.324219 94.398438 C 200.871094 100.527344 205.414062 106.65625 209.960938 112.785156 C 220.1875 126.578125 230.417969 140.371094 240.640625 154.164062 C 241.113281 154.796875 242.1875 154.179688 241.714844 153.535156 "/><g clip-rule="nonzero" clip-path="url(#86ef905750)"><path style=" stroke:none;fill-rule:nonzero;fill:#1e1e1e;fill-opacity:1;" d="M 187.5 98.578125 C 181.113281 98.578125 175.921875 93.382812 175.921875 87 C 175.921875 80.617188 181.113281 75.421875 187.5 75.421875 C 193.882812 75.421875 199.078125 80.617188 199.078125 87 C 199.078125 93.382812 193.882812 98.578125 187.5 98.578125 "/></g><path style=" stroke:none;fill-rule:nonzero;fill:#fcf4d4;fill-opacity:1;" d="M 197.421875 87 C 197.421875 92.480469 192.980469 96.921875 187.5 96.921875 C 182.015625 96.921875 177.574219 92.480469 177.574219 87 C 177.574219 81.515625 182.015625 77.074219 187.5 77.074219 C 192.980469 77.074219 197.421875 81.515625 197.421875 87 "/><path style=" stroke:none;fill-rule:nonzero;fill:#ffffff;fill-opacity:1;" d="M 179.226562 88.652344 C 179.226562 83.171875 183.671875 78.730469 189.152344 78.730469 C 191.472656 78.730469 193.601562 79.53125 195.289062 80.863281 C 193.472656 78.5625 190.660156 77.074219 187.5 77.074219 C 182.015625 77.074219 177.574219 81.515625 177.574219 87 C 177.574219 90.164062 179.058594 92.972656 181.363281 94.792969 C 180.027344 93.101562 179.226562 90.972656 179.226562 88.652344 "/><g clip-rule="nonzero" clip-path="url(#db901a37de)"><path style=" stroke:none;fill-rule:nonzero;fill:#1e1e1e;fill-opacity:1;" d="M 289.636719 240 C 289.636719 246.820312 284.054688 252.40625 277.230469 252.40625 L 97.765625 252.40625 C 90.941406 252.40625 85.359375 246.820312 85.359375 240 L 85.359375 150.679688 C 85.359375 143.855469 90.941406 138.273438 97.765625 138.273438 L 277.230469 138.273438 C 284.054688 138.273438 289.636719 143.855469 289.636719 150.679688 Z M 277.230469 133.3125 L 97.765625 133.3125 C 88.191406 133.3125 80.398438 141.105469 80.398438 150.679688 L 80.398438 240 C 80.398438 249.574219 88.191406 257.367188 97.765625 257.367188 L 277.230469 257.367188 C 286.804688 257.367188 294.597656 249.574219 294.597656 240 L 294.597656 150.679688 C 294.597656 141.105469 286.804688 133.3125 277.230469 133.3125 "/></g><path style=" stroke:none;fill-rule:nonzero;fill:#fcf4d4;fill-opacity:1;" d="M 250.960938 156.140625 C 249.898438 159.214844 246.535156 160.851562 243.460938 159.789062 C 240.390625 158.722656 238.753906 155.359375 239.816406 152.285156 C 240.878906 149.214844 244.242188 147.578125 247.320312 148.640625 C 250.390625 149.703125 252.027344 153.066406 250.960938 156.140625 Z M 131.535156 159.789062 C 128.464844 160.851562 125.097656 159.214844 124.035156 156.140625 C 122.972656 153.066406 124.605469 149.703125 127.679688 148.640625 C 130.75 147.578125 134.117188 149.214844 135.179688 152.285156 C 136.242188 155.359375 134.609375 158.722656 131.535156 159.789062 Z M 277.230469 138.273438 L 97.765625 138.273438 C 90.941406 138.273438 85.359375 143.855469 85.359375 150.679688 L 85.359375 240 C 85.359375 246.820312 90.941406 252.40625 97.765625 252.40625 L 277.230469 252.40625 C 284.054688 252.40625 289.636719 246.820312 289.636719 240 L 289.636719 150.679688 C 289.636719 143.855469 284.054688 138.273438 277.230469 138.273438 "/><path style=" stroke:none;fill-rule:nonzero;fill:#ffffff;fill-opacity:1;" d="M 89.496094 243.308594 L 89.496094 153.988281 C 89.496094 147.164062 95.078125 141.582031 101.902344 141.582031 L 281.367188 141.582031 C 283.339844 141.582031 285.199219 142.0625 286.859375 142.890625 C 284.578125 140.082031 281.105469 138.273438 277.230469 138.273438 L 97.765625 138.273438 C 90.941406 138.273438 85.359375 143.855469 85.359375 150.679688 L 85.359375 240 C 85.359375 244.847656 88.1875 249.0625 92.269531 251.097656 C 90.539062 248.964844 89.496094 246.253906 89.496094 243.308594 "/><path style=" stroke:none;fill-rule:nonzero;fill:#1e1e1e;fill-opacity:1;" d="M 249.644531 154.796875 C 248.734375 157.433594 245.855469 158.832031 243.214844 157.921875 C 242.101562 157.53125 241.210938 156.792969 240.617188 155.867188 C 240.261719 154.835938 240.226562 153.679688 240.617188 152.558594 C 241.527344 149.925781 244.40625 148.527344 247.039062 149.4375 C 248.160156 149.824219 249.050781 150.5625 249.640625 151.488281 C 250 152.523438 250.03125 153.679688 249.644531 154.796875 Z M 247.320312 148.640625 C 244.242188 147.578125 240.878906 149.214844 239.816406 152.285156 C 238.753906 155.359375 240.390625 158.722656 243.460938 159.789062 C 246.535156 160.851562 249.898438 159.214844 250.960938 156.140625 C 252.027344 153.066406 250.390625 149.703125 247.320312 148.640625 "/><path style=" stroke:none;fill-rule:nonzero;fill:#1e1e1e;fill-opacity:1;" d="M 125.355469 151.488281 C 125.945312 150.5625 126.839844 149.824219 127.957031 149.4375 C 130.59375 148.527344 133.46875 149.925781 134.382812 152.558594 C 134.769531 153.679688 134.738281 154.835938 134.378906 155.867188 C 133.785156 156.792969 132.894531 157.53125 131.78125 157.921875 C 129.140625 158.832031 126.261719 157.433594 125.351562 154.796875 C 124.964844 153.679688 124.996094 152.523438 125.355469 151.488281 Z M 124.035156 156.140625 C 125.097656 159.214844 128.464844 160.851562 131.535156 159.789062 C 134.609375 158.722656 136.242188 155.359375 135.179688 152.285156 C 134.117188 149.214844 130.75 147.578125 127.679688 148.640625 C 124.605469 149.703125 122.972656 153.066406 124.035156 156.140625 "/><path style=" stroke:none;fill-rule:nonzero;fill:#1e1e1e;fill-opacity:1;" d="M 133.820312 153.847656 C 147.457031 135.460938 161.089844 117.070312 174.726562 98.679688 C 176.675781 96.050781 178.625 93.425781 180.570312 90.800781 C 183.039062 87.472656 177.457031 84.261719 175.015625 87.550781 C 161.378906 105.945312 147.742188 124.335938 134.105469 142.722656 C 132.160156 145.351562 130.210938 147.976562 128.261719 150.601562 C 125.792969 153.929688 131.378906 157.144531 133.820312 153.847656 "/><path style=" stroke:none;fill-rule:nonzero;fill:#ffffff;fill-opacity:1;" d="M 134.355469 154.164062 C 143.445312 141.902344 152.539062 129.644531 161.628906 117.382812 C 166.171875 111.25 170.71875 105.121094 175.265625 98.996094 C 177.164062 96.429688 180.074219 93.605469 181.335938 90.703125 C 181.769531 89.695312 181.941406 88.800781 181.464844 87.773438 C 180.402344 85.492188 177.253906 84.957031 175.308594 86.371094 C 173.203125 87.910156 171.617188 91.101562 170.097656 93.152344 C 167.824219 96.214844 165.554688 99.28125 163.277344 102.347656 C 154.1875 114.609375 145.097656 126.867188 136.007812 139.128906 C 133.574219 142.40625 131.058594 145.640625 128.703125 148.976562 C 127.734375 150.347656 126.644531 151.550781 127.210938 153.289062 C 128.257812 156.5 132.304688 156.308594 134.257812 154.289062 C 134.8125 153.71875 133.9375 152.839844 133.378906 153.414062 C 129.996094 155.417969 128.464844 154.585938 128.800781 150.917969 C 129.125 150.480469 129.449219 150.039062 129.769531 149.605469 C 130.535156 147.992188 132.117188 146.445312 133.179688 145.007812 C 135.132812 142.382812 137.074219 139.75 139.027344 137.125 C 143.085938 131.652344 147.140625 126.179688 151.199219 120.707031 C 155.097656 115.449219 158.992188 110.199219 162.886719 104.941406 C 164.835938 102.316406 166.785156 99.6875 168.730469 97.0625 C 171.132812 93.828125 173.199219 89.746094 176.949219 88.203125 C 179.375 86.296875 180.402344 87.058594 180.035156 90.488281 C 179.546875 91.144531 179.0625 91.800781 178.574219 92.457031 C 177.601562 93.769531 176.628906 95.082031 175.65625 96.398438 C 173.542969 99.242188 171.433594 102.089844 169.324219 104.9375 C 165.425781 110.1875 161.53125 115.445312 157.636719 120.699219 C 149.515625 131.644531 141.402344 142.589844 133.28125 153.535156 C 132.808594 154.179688 133.882812 154.800781 134.355469 154.164062 "/><path style=" stroke:none;fill-rule:nonzero;fill:#1e1e1e;fill-opacity:1;" d="M 241.175781 153.847656 C 227.542969 135.460938 213.90625 117.070312 200.269531 98.679688 C 198.320312 96.050781 196.371094 93.425781 194.425781 90.800781 C 191.960938 87.472656 197.539062 84.261719 199.980469 87.550781 C 213.617188 105.945312 227.253906 124.335938 240.890625 142.722656 C 242.835938 145.351562 244.785156 147.976562 246.734375 150.601562 C 249.199219 153.929688 243.621094 157.144531 241.175781 153.847656 "/><path style=" stroke:none;fill-rule:nonzero;fill:#ffffff;fill-opacity:1;" d="M 241.714844 153.535156 C 233.59375 142.589844 225.480469 131.644531 217.363281 120.699219 C 213.464844 115.445312 209.570312 110.1875 205.671875 104.9375 C 203.726562 102.308594 201.777344 99.679688 199.828125 97.054688 C 198.855469 95.742188 197.882812 94.425781 196.910156 93.113281 C 196.257812 92.238281 195.609375 91.359375 194.960938 90.488281 C 194.59375 87.058594 195.621094 86.296875 198.050781 88.203125 C 201.617188 89.671875 203.5 93.332031 205.777344 96.402344 C 207.886719 99.25 209.996094 102.097656 212.109375 104.941406 C 216.003906 110.199219 219.902344 115.449219 223.796875 120.707031 C 227.691406 125.960938 231.589844 131.214844 235.484375 136.46875 C 237.433594 139.09375 239.382812 141.722656 241.328125 144.351562 C 242.464844 145.882812 243.601562 147.414062 244.738281 148.945312 C 245.226562 149.605469 245.710938 150.261719 246.199219 150.917969 C 246.53125 154.585938 245.003906 155.417969 241.617188 153.414062 C 241.0625 152.839844 240.183594 153.714844 240.738281 154.289062 C 242.542969 156.152344 245.734375 156.535156 247.371094 154.09375 C 249.621094 150.742188 244.128906 146.054688 242.398438 143.726562 C 233.472656 131.679688 224.542969 119.640625 215.613281 107.601562 C 211.070312 101.46875 206.523438 95.339844 201.976562 89.210938 C 200.21875 86.839844 197.851562 84.074219 194.726562 86.390625 C 191.40625 88.855469 194.558594 92.019531 196.324219 94.398438 C 200.871094 100.527344 205.414062 106.65625 209.960938 112.785156 C 220.1875 126.578125 230.417969 140.371094 240.640625 154.164062 C 241.113281 154.796875 242.1875 154.179688 241.714844 153.535156 "/><g clip-rule="nonzero" clip-path="url(#3ef4191452)"><path style=" stroke:none;fill-rule:nonzero;fill:#1e1e1e;fill-opacity:1;" d="M 187.5 98.578125 C 181.113281 98.578125 175.921875 93.382812 175.921875 87 C 175.921875 80.617188 181.113281 75.421875 187.5 75.421875 C 193.882812 75.421875 199.078125 80.617188 199.078125 87 C 199.078125 93.382812 193.882812 98.578125 187.5 98.578125 "/></g><path style=" stroke:none;fill-rule:nonzero;fill:#fcf4d4;fill-opacity:1;" d="M 197.421875 87 C 197.421875 92.480469 192.980469 96.921875 187.5 96.921875 C 182.015625 96.921875 177.574219 92.480469 177.574219 87 C 177.574219 81.515625 182.015625 77.074219 187.5 77.074219 C 192.980469 77.074219 197.421875 81.515625 197.421875 87 "/><path style=" stroke:none;fill-rule:nonzero;fill:#ffffff;fill-opacity:1;" d="M 179.226562 88.652344 C 179.226562 83.171875 183.671875 78.730469 189.152344 78.730469 C 191.472656 78.730469 193.601562 79.53125 195.289062 80.863281 C 193.472656 78.5625 190.660156 77.074219 187.5 77.074219 C 182.015625 77.074219 177.574219 81.515625 177.574219 87 C 177.574219 90.164062 179.058594 92.972656 181.363281 94.792969 C 180.027344 93.101562 179.226562 90.972656 179.226562 88.652344 "/></g></svg>